<?xml version="1.0" standalone="no"?>
<svg viewBox="0 0 200 200" xmlns="http://www.w3.org/2000/svg">
  <path fill="#FF0066" d="M42.3,-65.2C57.4,-56,74.1,-48.7,83.2,-35.9C92.3,-23.1,93.8,-4.7,90.7,12.6C87.5,29.9,79.6,46,67.3,56.1C55.1,66.2,38.4,70.2,21.9,75.5C5.3,80.9,-11.1,87.5,-25.8,84.7C-40.5,81.9,-53.4,69.7,-63.1,56C-72.9,42.4,-79.4,27.4,-83.1,11.1C-86.7,-5.2,-87.5,-22.8,-82,-38.5C-76.5,-54.3,-64.7,-68.3,-50,-77.7C-35.3,-87.1,-17.6,-91.8,-2,-88.7C13.6,-85.5,27.1,-74.4,42.3,-65.2Z" transform="translate(100 100)" />
</svg>
